<svg xmlns="http://www.w3.org/2000/svg" viewBox="0 0 420 110" role="img" aria-labelledby="logo-title">
  <title id="logo-title">Conexao</title>
  <path d="M14 70c6-20 17-35 33-45 12-7 25-9 36-6 6 2 9 6 9 10 0 7-7 12-16 12-7 0-12-2-19-5-6-3-10-4-14-4-9 0-17 5-24 15-7 9-11 20-11 30 0 12 7 21 23 21 14 0 28-6 44-19l5 7c-18 15-35 22-52 22C10 108 0 97 0 81c0-4 1-8 2-11 2-1 6-1 12 0Z" fill="#16c6c8"/>
  <path d="M109 84c0-17 11-31 27-31 9 0 17 4 22 10V55h16v53h-16v-8c-5 7-13 10-22 10-16 0-27-13-27-31Zm49 0c0-10-7-17-16-17s-16 7-16 17 7 17 16 17 16-7 16-17Z" fill="#16c6c8"/>
  <path d="M187 55h16v9c5-7 12-11 22-11 15 0 25 10 25 28v27h-16V84c0-10-5-16-14-16-9 0-17 6-17 18v22h-16V55Z" fill="#16c6c8"/>
  <path d="M265 108V55h16v53h-16Zm8-61c-6 0-10-4-10-10 0-5 4-9 10-9s10 4 10 9c0 6-4 10-10 10Z" fill="#16c6c8"/>
  <path d="M296 84c0-17 13-31 32-31 11 0 19 4 25 12l-11 9c-4-4-8-7-14-7-9 0-16 7-16 17s7 17 16 17c6 0 10-3 15-8l10 8c-6 8-14 13-26 13-18 0-31-13-31-30Z" fill="#16c6c8"/>
  <path d="M359 84c0-17 11-31 27-31 9 0 17 4 22 10V55h12v53h-12v-8c-5 7-13 10-22 10-16 0-27-13-27-31Zm49 0c0-10-7-17-16-17s-16 7-16 17 7 17 16 17 16-7 16-17Z" fill="#16c6c8"/>
</svg>
