<svg width="1531.6" height="610.9" version="1.1" viewBox="0 0 1531.6 610.9" xmlns="http://www.w3.org/2000/svg" xmlns:xlink="http://www.w3.org/1999/xlink"><g transform="translate(-92.667 -175.9)"><path transform="matrix(1.3333 0 0 -1.3333 1268 489.25)" d="m0 0c0.908 5.169 2.32 10.355 5.191 14.748 2.872 4.393 7.39 7.931 12.592 8.625 7.419 0.99 14.327-3.771 19.839-8.835 5.512-5.065 10.709-11.633 18.084-12.913 9.368-1.625 32.611 17.165 36.425 25.617" fill="#fff"/><path transform="matrix(1.3333 0 0 -1.3333 1267.3 489.13)" d="m0 0c1.025 19.052 15.046 33.614 33.913 22.462 4.626-2.704 8.685-6.521 12.55-9.922 3.165-2.734 6.818-5.422 10.725-5.644 3.451 0.611 7.094 2.567 10.449 4.261 6.293 3.319 12.751 7.335 18.71 11.498 2.028 1.448 4.053 2.905 5.824 4.718l1.003-0.453c-1.01-5.42-4.462-10.038-7.844-14.214-6.403-7.258-14.173-14.199-24.004-16.452-4.828-1.317-11.08 1.163-14.736 4.166-7.995 6.151-12.971 15.456-22.45 19.209-6.456 2.529-13.036-0.612-17.182-6.267-2.851-3.845-4.591-8.651-5.875-13.552z" fill="#09b3b1"/><path transform="matrix(1.3333 0 0 -1.3333 312.55 386.05)" d="m0 0c7.54-5.503 16.897-7.902 26.124-7.756 44.368 0.917 74.577 60.812 66.998 100.31-3.748 17.591-15.74 32.755-31.487 41.118-2.918 1.493-5.987 2.52-9.15 3.449-9.922 2.918-26.309 5.339-36.811 7.399-6.4 1.248-12.9 2.517-19.321 4.508l0.111 2.297c16.117 3.5 32.519 6.294 49.214 6.296 6.627 0.011 13.622-0.583 20.163-2.192 4.228-1.146 8.391-2.838 12.293-4.802 28.673-14.624 39.169-46.662 34.407-76.983-5.053-38.428-35.247-83.742-76.412-87.538-10.189-0.779-20.677 1.051-29.582 6.134-2.908 1.715-5.604 3.731-8.033 6.006z"/><path transform="matrix(1.3333 0 0 -1.3333 603.98 299.78)" d="m0 0c-15.002 16.887-41.743 16.663-59.889 5.082-18.018-10.998-32.932-29.247-40.034-48.972-3.357-9.474-4.421-19.778-2.718-29.679 2.169-12.539 7.129-24.749 15.893-34.03 4.403-4.715 10.091-7.5 15.927-10.097 10.429-4.68 21.75-8.308 32.038-13.948l-0.531-2.135c-19.019-0.447-43.009-1.765-59.485 9.882-15.659 10.811-24.882 29.556-25.531 48.336-0.528 13.167 2.689 26.324 8.088 38.264 14.925 33.027 54.269 66.494 92.305 56.433 7.37-2.008 14.376-5.629 19.917-10.899 2.202-2.087 4.104-4.445 5.779-6.916z"/><path transform="matrix(1.3333 0 0 -1.3333 710.91 769.18)" d="m0 0c-9.005 0-27.705 18.889-30.249 37.479-3.89 29.45-5.997 76.884-1.429 111.42 1.159 9.275 4.153 13.972 8.899 13.972 5.367 0 13.079-5.888 19.647-15.001 5.031-6.98 7.855-13.926 6.867-16.89-2.6-7.801-4.354-20.137-4.938-34.734l-0.426-10.67 3.35 10.14c10.955 33.162 23.912 55.38 29.614 60.564 0.832 0.725 1.642 1.46 2.422 2.17 4.046 3.678 6.97 6.335 11.693 6.335 4.128 0 9.437-2.032 16.707-6.394 14.634-8.723 29.107-25.932 26.485-36.682-7.391-30.569-7.765-67.601-7.765-74.714 0.126-10.943 1.803-19.83 3.028-26.319 1.614-8.549 2.268-12.719-0.483-14.095-0.881-0.452-1.879-0.679-2.978-0.679-10.294 0-28.075 19.061-30.608 44.388-1.079 9.71-1.194 40.562 3.418 67.955l0.426 2.525-2.411-0.864c-16.227-5.818-35.79-46.131-47.574-98.033-0.929-4.03-0.588-9.159-0.012-12.326 0.751-5.157-0.136-7.46-1.013-8.475-0.626-0.724-1.499-1.077-2.668-1.077z" fill="#09b3b1"/><path transform="matrix(1.3333 0 0 -1.3333 771.51 547.46)" d="m0 0c-6.304 0-9.779-4.24-15.124-8.896-6.292-5.72-19.448-29.172-30.029-61.203 0.571 14.3 2.288 26.598 4.861 34.32 2.655 7.964-15.543 33.865-27.937 33.865-4.962 0-8.996-4.156-10.386-15.276-4.576-34.605-2.574-81.508 1.43-111.82 2.634-19.246 22.056-38.776 31.738-38.776 3.986 0 6.323 3.313 5.155 11.32-0.571 3.147-0.857 8.008 0 11.726 12.012 52.909 31.46 91.518 46.618 96.953-4.576-27.17-4.576-58.058-3.432-68.354 2.562-25.625 20.736-45.738 32.101-45.738 1.319 0 2.547 0.272 3.648 0.837 6.864 3.433-1.43 16.874-1.716 41.756 0 15.729 1.43 48.333 7.722 74.358 2.86 11.727-12.297 29.458-27.17 38.323-7.949 4.771-13.327 6.609-17.479 6.609m1e-3 0v-3c3.791 0 9.003-2.022 15.942-6.185 14.151-8.436 28.188-25.211 25.79-35.042-7.429-30.732-7.806-67.92-7.806-75.098 0.128-11.058 1.819-20.019 3.055-26.563 1.392-7.373 2.093-11.588 0.291-12.489-0.653-0.336-1.42-0.506-2.278-0.506-9.799 0-26.74 19.281-29.119 43.07-1.07 9.623-1.181 40.276 3.408 67.524l0.851 5.05-4.822-1.728c-10.504-3.766-20.031-19.58-26.172-32.184-8.773-18.001-16.504-41.145-22.356-66.919-0.977-4.234-0.633-9.571-0.038-12.882 0.747-5.181-0.317-6.882-0.661-7.281-0.225-0.26-0.602-0.557-1.533-0.557-7.439 0-26.208 17.493-28.764 36.169-3.878 29.361-5.979 76.633-1.427 111.06 0.721 5.77 2.592 12.648 7.409 12.648 4.825 0 12.232-5.778 18.43-14.378 5.585-7.748 7.257-13.751 6.661-15.539-2.643-7.932-4.424-20.414-5.013-35.148l-0.853-21.341 6.699 20.28c10.736 32.499 23.744 54.936 29.178 59.905 0.862 0.752 1.666 1.482 2.443 2.189 3.939 3.58 6.541 5.946 10.684 5.946z" fill="#fff"/><path transform="matrix(1.3333 0 0 -1.3333 974.97 591.68)" d="m0 0c-10.025 0-30.355-16.854-32.896-19.253-4.968-4.968-9.139-9.897-12.783-15.102l-1.258-1.796 2.13-0.522c7.422-1.817 13.745-2.701 19.328-2.701 7.472 0 13.602 1.661 18.218 4.936 8.176 5.45 15.331 18.877 12.896 30.141-0.641 2.777-2.641 4.297-5.635 4.297m-31.866-135.16c-8.447 0-36.668 1.901-45.202 26.366-12.076 34.08-10.646 69.818 3.922 98.059 12.793 24.652 33.35 41.679 54.985 45.543 0.945 0.162 2.028 0.245 3.207 0.245 10.679 0 27.69-6.673 36.554-17.453 16.058-19.66 6.942-62.035 0.191-72.296-8.007-12.304-22.174-18.804-40.973-18.805h-5e-3c-11.511 0-24.861 2.393-39.68 7.112l-1.634 0.521-0.299-1.69c-1.078-6.111-0.97-11.441 0.324-15.841 3.344-10.944 10.431-13.321 25.055-14.514 1.391-0.12 2.845-0.182 4.314-0.182 22.023 0 48.044 13.391 65.05 25.922 3.819 2.897 6.186 3.502 7.501 3.502 1.25 0 2.127-0.525 2.759-1.653 2.393-4.269 0.537-15.759-6.708-27.599-8.687-14.116-28.385-31.042-57.61-36.199-3.764-0.689-7.714-1.038-11.751-1.038" fill="#09b3b1"/><path transform="matrix(1.3333 0 0 -1.3333 941 642.18)" d="m0 0c-5.92 0-12.383 1.045-18.971 2.658 4.004 5.72 8.294 10.582 12.584 14.872 4.129 3.9 23.168 18.844 31.866 18.844 2.144 0 3.66-0.909 4.169-3.114 2.288-10.582-4.576-23.452-12.298-28.6-4.698-3.334-10.679-4.66-17.35-4.66m10.525 74.426c-1.257 0-2.422-0.089-3.471-0.269-24.023-4.29-44.329-23.738-56.055-46.332-14.014-27.169-16.874-62.919-4.004-99.24 6.997-20.059 28.067-27.372 46.618-27.372 4.196 0 8.266 0.375 12.011 1.06 29.171 5.149 49.477 22.022 58.629 36.894 9.267 15.143 10.675 31.537 2.67 31.535-2.124 0-4.912-1.155-8.39-3.794-15.333-11.298-41.794-25.629-64.161-25.629-1.414 0-2.815 0.057-4.192 0.176-14.014 1.144-20.592 3.146-23.737 13.441-1.43 4.863-1.145 10.296-0.286 15.159 15.632-4.979 28.936-7.183 40.141-7.183 20.978 0 34.582 7.736 42.225 19.48 7.15 10.869 16.302 53.767-0.286 74.073-9.473 11.522-26.969 18.001-37.712 18.001m-10.525-77.426c7.77 0 14.18 1.746 19.05 5.188 8.607 5.763 16.091 19.862 13.521 31.746-0.798 3.457-3.383 5.44-7.092 5.44-10.663 0-31.196-17.085-33.926-19.663l-0.031-0.029-0.031-0.03c-5-5-9.226-9.996-12.92-15.273l-2.514-3.592 4.258-1.043c7.541-1.846 13.98-2.744 19.685-2.744m10.525 74.426c10.337 0 26.809-6.464 35.388-16.899 15.64-19.145 6.699-60.501 0.095-70.538-7.823-12.022-21.184-18.117-39.71-18.117-11.36 0-24.56 2.369-39.231 7.041l-3.268 1.041-0.597-3.378c-1.119-6.341-0.997-11.901 0.372-16.556 3.898-12.76 13.385-14.496 26.348-15.554 1.441-0.124 2.938-0.187 4.45-0.187 22.387 0 48.741 13.541 65.974 26.239 3.652 2.77 5.689 3.184 6.578 3.184 0.603 0 1.034-0.145 1.449-0.886 1.861-3.319 0.574-14.23-6.675-26.077-8.518-13.842-27.859-30.44-56.614-35.515-3.665-0.671-7.524-1.011-11.471-1.011-9.601 0-18.932 2.072-26.274 5.834-8.645 4.43-14.537 11-17.517 19.54-11.935 33.684-10.534 68.99 3.84 96.856 12.583 24.246 32.74 40.979 53.899 44.757 0.872 0.15 1.869 0.226 2.964 0.226" fill="#fff"/><path transform="matrix(1.3333 0 0 -1.3333 1094.3 762.59)" d="m0 0c-7.537-1e-3 -18.039 7.719-21.863 20.19-2.339 7.719-0.198 17.165 6.742 29.723 3.422 6.191 7.567 12.532 11.956 19.245 3.23 4.942 6.57 10.051 9.75 15.31l0.456 0.754-0.436 0.764c-9.687 17.018-18.019 33.973-26.077 50.369l-2.194 4.462c-2.296 4.707-2.686 8.52-1.123 11.02 1.344 2.151 4.172 3.335 7.963 3.335 8.583 0 20.686-6.193 26.212-17.669 2.906-6.297 6.8-13.753 10.235-20.332l2.901-5.568 1.43 1.915c16.225 21.735 32.103 38.513 41.553 46.968 1.762 1.623 3.51 2.439 5.213 2.439 3.233 0 6.656-3.048 9.391-8.363 4.506-8.756 6.457-22.811 2.051-28.979-3.088-4.347-7.479-9.591-12.564-15.663-7.491-8.945-16.813-20.078-26.053-33.253l-0.57-0.813 0.526-0.843c8.677-13.883 19.443-26.257 30.842-39.357 3.696-4.248 7.517-8.64 11.325-13.152 6.21-7.413 8.874-14.08 7.123-17.831-1.094-2.346-3.726-2.838-5.742-2.838-4.787 0-11.059 2.631-17.658 7.407-7.355 5.296-33.18 29.047-40.826 40.242l-1.413 2.071-1.156-2.224c-2.666-5.128-5.448-9.904-8.138-14.523-1.028-1.764-2.029-3.484-2.987-5.16-4.166-7.982-6.244-13.614-6.766-18.309-0.854-7.308-4.443-11.337-10.103-11.337" fill="#09b3b1"/><path transform="matrix(1.3333 0 0 -1.3333 1191.3 543.35)" d="m0 0c-1.993 0-4.085-0.859-6.213-2.82-10.868-9.724-26.597-26.884-41.755-47.19-3.718 7.151-8.58 16.302-12.012 23.739-5.834 12.115-18.47 18.519-27.564 18.519-8.294 0-13.642-5.331-8.185-16.517 8.866-18.018 17.731-36.322 28.313-54.912-7.435-12.297-15.729-23.738-21.735-34.605-6.006-10.868-9.724-21.45-6.865-30.888 3.933-12.824 14.713-21.251 23.299-21.251 5.775 0 10.558 3.815 11.593 12.671 0.572 5.149 3.147 11.154 6.578 17.732 3.432 6.005 7.436 12.584 11.154 19.734 8.007-11.727 34.034-35.464 41.183-40.611 7.346-5.316 13.84-7.692 18.538-7.692 9.203 0 11.505 9.123-0.234 23.135-15.444 18.304-30.602 34.033-42.041 52.337 15.443 22.021 30.888 38.038 38.609 48.905 7.329 10.26-0.991 39.715-12.663 39.714m0 0v-3c2.613 0 5.625-2.822 8.057-7.548 4.768-9.264 5.799-22.334 2.161-27.428-3.052-4.295-7.425-9.518-12.49-15.565-7.509-8.968-16.854-20.128-26.13-33.356l-1.141-1.627 1.053-1.685c8.739-13.983 19.543-26.4 30.981-39.546 3.693-4.244 7.511-8.632 11.304-13.128 6.872-8.201 8.021-13.872 6.918-16.237-0.761-1.629-2.804-1.971-4.384-1.971-4.409 0-10.525 2.596-16.785 7.126-7.292 5.25-32.892 28.788-40.459 39.869l-2.827 4.139-2.312-4.447c-2.65-5.096-5.422-9.856-8.104-14.46-1.029-1.768-2.033-3.491-2.993-5.17l-0.028-0.05-0.027-0.051c-4.228-8.104-6.356-13.899-6.898-18.771-0.534-4.57-2.462-10.019-8.613-10.019-7.004 0-16.807 7.314-20.427 19.121-2.215 7.31-0.112 16.387 6.618 28.567 3.395 6.142 7.526 12.46 11.899 19.149 3.237 4.953 6.585 10.073 9.778 15.355l0.911 1.507-0.871 1.53c-9.665 16.978-17.987 33.913-26.035 50.29l-2.189 4.452c-2.031 4.162-2.457 7.562-1.201 9.571 1.429 2.289 4.805 2.631 6.69 2.631 8.126 0 19.6-5.896 24.84-16.777 2.932-6.351 6.834-13.824 10.277-20.417 0.62-1.188 1.223-2.342 1.798-3.448l2.206-4.241 2.859 3.831c16.158 21.646 31.956 38.341 41.384 46.778 1.459 1.344 2.866 2.026 4.18 2.026z" fill="#fff"/><path transform="matrix(1.3333 0 0 -1.3333 1306.6 668.02)" d="m0 0c-3.668 0-6.568-0.737-8.62-2.19-10.302-6.968-21.714-23.798-15.332-35.955 0.871-1.651 2.723-3.616 6.606-3.616 8.13-1e-3 23.221 8.852 44.855 26.313l0.459 0.37 0.084 0.585c0.301 2.107 0.301 4.197 0.301 6.218v1.02l-0.95 0.375c-11.564 4.565-20.784 6.88-27.403 6.88m-5.135-74.33c-11.916-1e-3 -31.974 13.832-37.526 29.38-6.021 16.34-7.328 23.933-5.068 46.247 1.934 20.424 17.667 35.817 36.598 35.817 4.878 0 9.765-1.014 14.524-3.015 1.689-0.687 3.372-1.367 5.058-2.048 7.445-3.007 15.142-6.116 22.361-9.376l1.758-0.794 0.336 1.9c1.768 10.017 3.448 19.858 4.59 30.124 0.35 3.324-0.546 6.196-2.662 8.546-3.474 3.86-10.326 6.072-18.799 6.072-9.046 0-17.649-2.423-21.918-6.174-6.753-5.909-15.731-10.2-21.347-10.2-2.146-1e-3 -3.634 0.629-4.424 1.871-3.501 6.002 4.647 18.179 12.698 26.766 9.875 10.656 24.967 16.765 41.41 16.765 1.055 0 2.126-0.027 3.184-0.076 7.868-0.309 22.908-10.321 34.251-22.792 7.787-8.561 12.088-16.46 11.798-21.672-3.15-51.824-4.588-75.482-2.574-107.43 0.257-3.335-0.17-4.119-1.439-5.897l-0.057-0.085c-2.229-3.623-5.184-5.459-8.783-5.459-5.519 0-12.223 4.338-17.932 11.605l-0.973 1.239-1.19-1.033c-14.144-12.284-28.48-19.091-42.608-20.229-0.42-0.038-0.839-0.055-1.266-0.055" fill="#09b3b1"/><path transform="matrix(1.3333 0 0 -1.3333 1283.5 721.7)" d="m0 0c-2.406 0-4.243 0.851-5.279 2.813-6.006 11.44 5.148 27.457 14.871 34.034 1.919 1.359 4.62 1.914 7.753 1.914 8.076 0 19.023-3.685 26.853-6.776 0-2.002 0-4.004-0.287-6.006-13.193-10.648-33.694-25.979-43.911-25.979m39.8 139.31c-16.781-1e-3 -32.295-6.221-42.506-17.239-8.579-9.151-16.873-21.735-12.869-28.598 1.142-1.795 3.166-2.565 5.69-2.565 6.329 0 15.795 4.848 22.338 10.572 4.099 3.603 12.675 5.803 20.927 5.802 10.745-1e-3 20.94-3.732 19.97-12.952-1.145-10.296-2.86-20.306-4.576-30.029-8.866 4.004-18.304 7.721-27.455 11.439-5.088 2.139-10.185 3.133-15.105 3.133-19.417 0-36.038-15.488-38.091-37.166-2.288-22.594-0.858-30.602 5.148-46.903 5.519-15.455 25.951-30.376 38.94-30.376 0.471 0 0.934 0.02 1.385 0.06 17.732 1.43 32.604 11.154 43.472 20.592 5.804-7.387 12.906-12.178 19.111-12.178 3.885 0 7.418 1.878 10.061 6.172 1.429 2.002 2.002 3.146 1.716 6.863-2.002 31.747-0.573 55.484 2.574 107.25 0.857 15.444-32.89 45.473-47.476 46.046-1.09 0.052-2.174 0.078-3.254 0.078m-31.914-99.997c-11.053-7.491-22.69-24.812-15.818-37.902 1.062-2.013 3.301-4.413 7.932-4.413 8.601 0 23.581 8.716 45.796 26.645l0.918 0.741 0.167 1.169c0.317 2.213 0.317 4.357 0.317 6.43v2.041l-1.899 0.75c-11.74 4.635-21.145 6.985-27.954 6.985-3.969 0-7.151-0.823-9.459-2.446m31.915 99.997v-3h1e-3c1.029 0 2.075-0.025 3.134-0.076 7.38-0.29 22.268-10.294 33.19-22.302 7.407-8.145 11.672-15.838 11.409-20.564-3.154-51.896-4.594-75.582-2.571-107.66 0.227-2.94-0.096-3.392-1.166-4.889l-0.059-0.084-0.054-0.088c-1.965-3.192-4.42-4.744-7.506-4.744-5.062 0-11.325 4.124-16.752 11.031l-1.947 2.478-2.379-2.066c-13.898-12.07-27.943-18.754-41.77-19.869-0.359-0.031-0.736-0.048-1.12-0.048-11.343 0-30.894 13.765-36.125 28.413-5.921 16.07-7.207 23.551-4.976 45.583 1.86 19.639 16.952 34.449 35.104 34.449 4.677 0 9.368-0.975 13.976-2.912 1.674-0.68 3.357-1.36 5.045-2.042 7.43-3.002 15.113-6.105 22.304-9.352l3.518-1.589 0.671 3.801c1.772 10.042 3.457 19.909 4.605 30.237 0.39 3.702-0.661 7.055-3.038 9.697-5.145 5.715-14.686 6.569-19.915 6.569h-3e-3c-9.387 0-18.379-2.57-22.9-6.544-6.405-5.604-15.159-9.83-20.362-9.83-2.283 0-2.909 0.793-3.126 1.124-2.419 4.289 2.705 14.546 12.506 25 9.587 10.344 24.277 16.277 40.305 16.278z" fill="#fff"/><path transform="matrix(1.3333 0 0 -1.3333 1554.3 595.79)" d="m0 0c-1.877 0-3.942-0.308-6.314-0.94-21.072-5.418-40.551-35.164-45.955-53.652-2.998-10.279-2.308-26.607 4.035-35.064 2.883-3.846 6.632-5.796 11.143-5.796h1e-3c1.101 0 2.255 0.121 3.433 0.36 19.354 4.082 36.285 16.564 45.301 33.391 8.344 15.573 9.301 33.28 2.697 49.857-3.278 8.083-7.833 11.844-14.341 11.844m-15.551-123.98c-25.683 0-57.024 17.53-64.488 36.072-8.024 19.793-7.182 27.751-5.334 45.189l0.286 2.713c1.239 11.295 10.274 28.939 22.479 43.895 13.851 16.974 28.821 27.277 41.071 28.267 1.514 0.109 3.044 0.163 4.532 0.163 22.862 0 41.119-12.714 55.815-38.87 12.51-22.094 17.063-40.519 5.323-74.565-8.716-24.943-23.711-37.171-51.756-42.198-2.459-0.443-5.126-0.666-7.928-0.666" fill="#09b3b1"/><path transform="matrix(1.3333 0 0 -1.3333 1504.9 721.06)" d="m0 0c-15.454 0-17.501 26.038-13.738 38.94 5.433 18.59 24.881 47.475 44.901 52.623 2.131 0.568 4.101 0.889 5.928 0.889 5.527 0 9.722-2.945 12.947-10.899 14.586-36.607-10.296-73.501-46.903-81.223-1.102-0.223-2.145-0.33-3.135-0.33m20.086 127.77c-1.523 0-3.076-0.055-4.653-0.168-28.314-2.288-62.347-50.05-64.921-73.501-2.002-19.162-3.432-27.456 5.148-48.619 7.961-19.775 40.826-37.012 65.88-37.012 2.848 0 5.595 0.223 8.192 0.69 30.316 5.434 44.616 19.448 52.91 43.185 11.44 33.176 8.007 52.052-5.434 75.789-13.495 24.021-31.572 39.637-57.122 39.636m-20.086-130.77c1.201 0 2.457 0.131 3.754 0.395 19.771 4.17 37.08 16.936 46.302 34.147 8.557 15.971 9.541 34.126 2.762 51.138-3.532 8.714-8.53 12.772-15.727 12.772-2.009 0-4.201-0.324-6.675-0.984-21.617-5.558-41.532-35.863-47.034-54.688-3.099-10.625-2.346-27.557 4.275-36.385 3.138-4.184 7.406-6.395 12.343-6.395m20.089 127.77c22.27 0 40.098-12.464 54.508-38.114 12.293-21.708 16.764-39.824 5.212-73.321-8.512-24.362-23.173-36.305-50.607-41.223-2.372-0.426-4.949-0.642-7.662-0.642-11.689 0-25.505 3.907-37.905 10.72-12.537 6.887-21.719 15.785-25.195 24.419-7.882 19.441-7.051 27.283-5.231 44.464l0.285 2.701c1.212 11.039 10.113 28.366 22.15 43.117 13.595 16.66 28.185 26.763 40.002 27.719 1.492 0.106 2.986 0.16 4.442 0.16z" fill="#fff"/><path transform="matrix(1.3333 0 0 -1.3333 1268.2 450.44)" d="m0 0c0.876 5.174 2.256 10.369 5.101 14.779 2.844 4.411 7.34 7.977 12.537 8.703 7.414 1.036 14.351-3.683 19.894-8.713s10.78-11.566 18.163-12.8c9.378-1.568 32.505 17.365 36.266 25.84" fill="#fff"/><path transform="matrix(1.3333 0 0 -1.3333 1267.5 450.32)" d="m0 0c0.907 19.058 14.838 33.706 33.774 22.67 4.643-2.675 8.725-6.467 12.611-9.844 3.182-2.714 6.851-5.38 10.759-5.577 3.448 0.632 7.078 2.61 10.423 4.324 6.273 3.359 12.706 7.414 18.638 11.614 2.02 1.46 4.036 2.929 5.796 4.753l1.005-0.446c-0.976-5.427-4.4-10.066-7.756-14.263-6.358-7.297-14.085-14.286-23.902-16.599-4.82-1.347-11.087 1.095-14.761 4.075-8.033 6.102-13.066 15.376-22.568 19.07-6.472 2.489-13.033-0.692-17.143-6.373-2.827-3.862-4.537-8.679-5.791-13.588z" fill="#09b3b1"/><path transform="matrix(1.3333 0 0 -1.3333 172.35 705.52)" d="m0 0c8.611 0.067 16.918 1.884 25.122 4.231 16.614 4.753 32.305 11.738 47.647 19.621 12.361 6.351 23.267 14.74 33.895 23.525 8.112 6.705 16.046 13.63 23.966 20.562 5.807 5.083 11.466 10.336 17.188 15.517 19.654 17.798 39.586 35.248 61.671 50.059 6.197 4.156 12.749 7.56 19.708 10.217 6.695 2.556 13.605 3.104 20.709 2.604 7.467-0.526 14.688-1.992 21.621-4.803 7.808-3.166 14.754-7.703 21.05-13.285 10.72-9.506 18.741-21.068 25.678-33.468 4.142-7.403 7.916-14.98 10.653-23.029 2.64-7.762 4.249-15.703 4.691-23.931 0.78-14.524-2.237-28.428-6.339-42.188-2.159-7.243-4.757-14.322-8.088-21.123-8.603-17.565-22.275-29.373-40.631-35.912-8.26-2.942-16.71-5.268-25.414-6.154-7.315-0.744-25.625-1.612-42.874 9.593-5.053 3.282-8.344 6.531-10.457 8.641-9.034 9.02-12.409 17.184-17.771 30.153-1.054 2.549-2.769 6.922-1.49 11.809 0.319 1.221 1.338 5.231 4.127 5.962 3.177 0.833 6.615-3.119 6.994-3.554 0.577-0.664 1.457-2.107 3.217-4.992 0.587-0.962 1.038-1.701 1.598-2.69 1.35-2.383 1.995-3.854 2.866-5.618 0.683-1.382 1.849-3.741 3.393-6.178 1.178-1.861 3.173-4.937 6.582-8.038 1.583-1.44 2.913-2.651 5.044-3.669 0.917-0.438 3.672-1.647 8.193-1.633 4.19 0.014 7.654 1.208 14.279 3.926 5.055 2.074 11.31 4.678 19.023 9.655 6.783 4.378 11.425 8.48 12.812 9.733 15.742 14.231 25.86 31.677 29.006 52.796 2.581 17.318 0.01 33.956-8.017 49.577-3.481 6.776-8.826 11.513-16.619 12.973-3.832 0.718-7.597 0.288-11.367-0.411-14.668-2.723-28.322-8.212-41.146-15.666-4.784-2.781-9.132-6.392-13.414-9.942-8.204-6.802-16.291-13.75-24.294-20.788-8.792-7.733-17.408-15.667-26.148-23.459-14.742-13.142-29.629-26.114-45.744-37.582-8.723-6.207-17.371-12.541-26.338-18.38-13.819-8.998-29.171-14.319-45.221-17.775-5.067-1.091-10.136-2.13-15.34-2.241-11.288-0.242-21.67 2.849-31.304 8.616-7.439 4.454-13.885 10.084-19.765 16.436-6.785 7.33-12.502 15.389-17.08 24.247-5.91 11.434-9.497 23.585-10.75 36.393-0.426 4.356-0.637 8.74-0.766 13.117-0.385 13.026 2.812 25.271 8.125 37.076 9.468 21.038 22.153 40.048 36.384 58.096 8.244 10.457 17.158 20.319 26.858 29.436 7.074 6.65 14.486 12.924 23.225 17.366 5.979 3.04 12.382 4.691 19.035 5.348 18.326 1.808 35.493-2.178 51.74-10.545 6.962-3.585 12.797-8.501 17.65-14.71 6.146-7.864 12.27-15.732 16.526-24.815 1.496-3.191 2.378-6.671 3.51-10.029 0.15-0.446 0.165-0.952 0.169-1.431 0.01-1.403-0.413-2.011-1.772-1.81-2.542 0.376-5.176 0.696-7.536 1.635-5.418 2.154-10.739 4.569-16.017 7.054-8.736 4.112-17.348 8.489-26.59 11.431-6.249 1.989-12.611 3.089-19.18 2.722-4.872-0.272-9.351-1.932-13.65-4.103-8.273-4.176-15.747-9.562-22.933-15.36-10.673-8.612-20.479-18.144-29.955-28.048-11.909-12.447-21.239-26.661-29.325-41.774-3.821-7.142-7.032-14.534-9.348-22.301-1.749-5.865-2.803-11.831-3.104-17.972-0.446-9.098 1.304-17.673 5.119-25.917 4.082-8.82 11.191-13.203 20.552-14.393 2.038-0.259 4.106-0.28 6.161-0.41" fill="#09b3b1" stroke="#09b3b1" stroke-miterlimit="10" stroke-width="6"/><g><path transform="matrix(1.3333 0 0 -1.3333 168.9 700.04)" d="m0 0c8.611 0.067 16.918 1.884 25.121 4.231 16.615 4.753 32.306 11.738 47.648 19.621 12.361 6.351 23.267 14.74 33.895 23.525 8.112 6.705 16.046 13.63 23.966 20.562 5.807 5.083 11.466 10.336 17.188 15.517 19.654 17.798 39.586 35.248 61.671 50.059 6.197 4.156 12.749 7.56 19.708 10.217 6.695 2.556 13.605 3.104 20.709 2.604 7.467-0.526 14.688-1.992 21.621-4.803 7.808-3.166 14.754-7.703 21.05-13.285 10.72-9.506 18.741-21.068 25.678-33.468 4.142-7.403 7.916-14.98 10.653-23.029 2.64-7.762 4.249-15.703 4.691-23.931 0.78-14.524-2.237-28.428-6.339-42.188-2.159-7.243-4.757-14.322-8.088-21.123-8.603-17.565-22.275-29.373-40.631-35.912-8.26-2.942-16.71-5.268-25.414-6.154-7.315-0.744-25.625-1.612-42.874 9.593-5.053 3.282-8.344 6.531-10.457 8.641-9.034 9.02-12.409 17.184-17.771 30.153-1.054 2.549-2.769 6.922-1.49 11.809 0.319 1.221 1.338 5.231 4.127 5.962 3.177 0.833 6.615-3.119 6.994-3.554 0.577-0.664 1.457-2.107 3.217-4.992 0.587-0.962 1.038-1.701 1.598-2.69 1.35-2.383 1.995-3.854 2.866-5.618 0.683-1.382 1.849-3.741 3.393-6.178 1.178-1.861 3.173-4.937 6.582-8.038 1.583-1.441 2.913-2.651 5.044-3.669 0.917-0.438 3.672-1.647 8.193-1.633 4.19 0.014 7.654 1.208 14.279 3.926 5.055 2.074 11.31 4.678 19.023 9.655 6.783 4.378 11.425 8.48 12.812 9.733 15.742 14.231 25.86 31.677 29.006 52.796 2.581 17.318 0.01 33.956-8.017 49.577-3.481 6.776-8.826 11.513-16.619 12.973-3.832 0.718-7.597 0.288-11.367-0.411-14.668-2.723-28.322-8.212-41.146-15.666-4.784-2.781-9.132-6.392-13.414-9.942-8.204-6.802-16.291-13.75-24.294-20.788-8.792-7.733-17.408-15.667-26.148-23.459-14.742-13.142-29.629-26.114-45.744-37.582-8.723-6.207-17.371-12.541-26.338-18.38-13.819-8.998-29.171-14.319-45.221-17.775-5.067-1.091-10.136-2.13-15.34-2.241-11.288-0.242-21.67 2.849-31.304 8.616-7.439 4.454-13.885 10.084-19.765 16.436-6.785 7.33-12.502 15.389-17.08 24.247-5.91 11.434-9.497 23.585-10.75 36.393-0.426 4.356-0.637 8.74-0.766 13.117-0.385 13.026 2.812 25.271 8.125 37.076 9.468 21.038 22.153 40.048 36.384 58.096 8.244 10.457 17.158 20.319 26.858 29.436 7.074 6.65 14.486 12.924 23.225 17.366 5.979 3.04 12.382 4.691 19.035 5.348 18.326 1.808 35.493-2.178 51.74-10.545 6.962-3.585 12.797-8.501 17.65-14.71 6.146-7.864 12.27-15.732 16.526-24.815 1.496-3.191 2.378-6.671 3.51-10.029 0.15-0.446 0.165-0.952 0.169-1.431 0.01-1.403-0.413-2.011-1.772-1.81-2.542 0.376-5.176 0.696-7.536 1.635-5.418 2.154-10.739 4.569-16.017 7.054-8.736 4.112-17.348 8.489-26.59 11.431-6.249 1.989-12.611 3.089-19.18 2.722-4.872-0.272-9.351-1.932-13.65-4.103-8.273-4.176-15.747-9.562-22.933-15.36-10.673-8.612-20.479-18.144-29.955-28.048-11.909-12.447-21.239-26.661-29.325-41.774-3.821-7.142-7.032-14.534-9.348-22.301-1.749-5.865-2.803-11.831-3.104-17.972-0.446-9.098 1.304-17.673 5.119-25.917 4.082-8.82 11.191-13.203 20.552-14.393 2.038-0.259 4.106-0.28 6.161-0.41" stroke="#000" stroke-miterlimit="10" stroke-width="3"/><path transform="matrix(1.3333 0 0 -1.3333 701.24 759.01)" d="m0 0c-9.005 0-27.705 18.889-30.249 37.479-3.89 29.45-5.997 76.884-1.429 111.42 1.159 9.275 4.153 13.972 8.899 13.972 5.367 0 13.079-5.888 19.647-15 5.031-6.981 7.855-13.927 6.867-16.891-2.6-7.801-4.354-20.137-4.938-34.734l-0.426-10.67 3.35 10.14c10.955 33.162 23.912 55.38 29.614 60.564 0.832 0.725 1.642 1.46 2.422 2.17 4.046 3.678 6.97 6.335 11.693 6.335 4.128 0 9.437-2.032 16.707-6.394 14.634-8.723 29.107-25.932 26.485-36.682-7.391-30.569-7.765-67.601-7.765-74.714 0.126-10.943 1.803-19.83 3.028-26.319 1.614-8.549 2.268-12.719-0.483-14.095-0.881-0.452-1.879-0.679-2.978-0.679-10.294 0-28.075 19.061-30.608 44.388-1.079 9.71-1.194 40.562 3.418 67.955l0.426 2.525-2.411-0.864c-16.227-5.818-35.79-46.131-47.574-98.033-0.929-4.03-0.588-9.159-0.012-12.326 0.751-5.157-0.136-7.46-1.013-8.475-0.626-0.724-1.499-1.077-2.668-1.077z"/><path transform="matrix(1.3333 0 0 -1.3333 761.84 537.29)" d="m0 0c-6.304 0-9.779-4.24-15.124-8.896-6.292-5.72-19.448-29.172-30.029-61.203 0.571 14.3 2.288 26.598 4.861 34.32 2.655 7.964-15.543 33.865-27.937 33.865-4.962 0-8.996-4.156-10.386-15.276-4.576-34.605-2.574-81.508 1.43-111.82 2.634-19.246 22.056-38.776 31.738-38.776 3.986 0 6.323 3.313 5.155 11.32-0.571 3.147-0.857 8.008 0 11.726 12.012 52.909 31.46 91.518 46.618 96.953-4.576-27.17-4.576-58.058-3.432-68.354 2.562-25.625 20.736-45.738 32.101-45.738 1.319 0 2.547 0.272 3.648 0.837 6.864 3.433-1.43 16.874-1.716 41.756 0 15.729 1.43 48.333 7.722 74.358 2.86 11.727-12.297 29.458-27.17 38.323-7.949 4.771-13.327 6.609-17.479 6.609m1e-3 0v-3c3.791 0 9.003-2.022 15.942-6.185 14.151-8.436 28.188-25.211 25.79-35.042-7.429-30.732-7.806-67.92-7.806-75.098 0.128-11.058 1.819-20.019 3.055-26.563 1.392-7.373 2.093-11.588 0.291-12.489-0.653-0.336-1.42-0.506-2.278-0.506-9.799 0-26.74 19.281-29.119 43.07-1.07 9.623-1.181 40.276 3.408 67.524l0.851 5.05-4.822-1.728c-10.504-3.766-20.031-19.58-26.172-32.184-8.773-18.001-16.504-41.145-22.356-66.919-0.977-4.234-0.633-9.571-0.038-12.882 0.747-5.181-0.317-6.882-0.661-7.281-0.225-0.26-0.602-0.557-1.533-0.557-7.439 0-26.208 17.493-28.764 36.169-3.878 29.361-5.979 76.633-1.427 111.06 0.721 5.77 2.592 12.648 7.409 12.648 4.825 0 12.232-5.778 18.43-14.378 5.585-7.748 7.257-13.751 6.661-15.539-2.643-7.932-4.424-20.414-5.013-35.148l-0.853-21.341 6.699 20.28c10.736 32.499 23.744 54.936 29.178 59.905 0.862 0.752 1.666 1.482 2.443 2.189 3.939 3.58 6.541 5.946 10.684 5.946z"/><path transform="matrix(1.3333 0 0 -1.3333 965.3 581.51)" d="m0 0c-10.025 0-30.355-16.854-32.896-19.253-4.968-4.968-9.139-9.897-12.783-15.102l-1.258-1.796 2.13-0.522c7.422-1.817 13.745-2.701 19.328-2.701 7.472 0 13.602 1.661 18.218 4.936 8.176 5.45 15.331 18.877 12.896 30.141-0.641 2.777-2.641 4.297-5.635 4.297m-31.866-135.16c-8.447 0-36.668 1.901-45.202 26.366-12.075 34.08-10.645 69.818 3.922 98.059 12.793 24.652 33.35 41.679 54.985 45.543 0.945 0.162 2.028 0.245 3.207 0.245 10.679 0 27.69-6.673 36.554-17.453 16.058-19.66 6.942-62.035 0.191-72.296-8.007-12.304-22.174-18.804-40.973-18.805h-5e-3c-11.511 0-24.861 2.393-39.68 7.112l-1.634 0.521-0.299-1.69c-1.078-6.111-0.97-11.441 0.324-15.841 3.344-10.944 10.431-13.321 25.055-14.514 1.391-0.12 2.845-0.182 4.314-0.182 22.023 0 48.044 13.391 65.05 25.922 3.819 2.897 6.186 3.502 7.501 3.502 1.25 0 2.127-0.525 2.759-1.653 2.393-4.269 0.537-15.759-6.708-27.599-8.687-14.116-28.385-31.042-57.61-36.199-3.764-0.689-7.714-1.038-11.751-1.038"/><path transform="matrix(1.3333 0 0 -1.3333 931.33 632.01)" d="m0 0c-5.92 0-12.383 1.045-18.971 2.658 4.004 5.72 8.294 10.582 12.584 14.872 4.129 3.9 23.168 18.844 31.866 18.844 2.144 0 3.66-0.909 4.169-3.114 2.288-10.582-4.576-23.452-12.298-28.6-4.698-3.334-10.679-4.66-17.35-4.66m10.525 74.426c-1.257 0-2.422-0.089-3.471-0.269-24.023-4.29-44.329-23.738-56.055-46.332-14.014-27.169-16.874-62.919-4.004-99.24 6.997-20.059 28.067-27.372 46.618-27.372 4.196 0 8.266 0.375 12.011 1.06 29.171 5.149 49.477 22.022 58.629 36.894 9.267 15.143 10.675 31.537 2.67 31.535-2.124 0-4.912-1.155-8.39-3.794-15.333-11.298-41.794-25.629-64.161-25.629-1.414 0-2.815 0.057-4.192 0.176-14.014 1.144-20.592 3.146-23.737 13.441-1.43 4.863-1.145 10.296-0.286 15.159 15.632-4.979 28.936-7.183 40.141-7.183 20.978 0 34.582 7.736 42.225 19.48 7.15 10.869 16.302 53.767-0.286 74.073-9.473 11.522-26.969 18.001-37.712 18.001m-10.525-77.426c7.77 0 14.18 1.746 19.05 5.188 8.607 5.763 16.091 19.862 13.521 31.746-0.798 3.457-3.383 5.44-7.092 5.44-10.663 0-31.196-17.085-33.926-19.663l-0.031-0.029-0.031-0.03c-5-5-9.226-9.996-12.92-15.273l-2.514-3.592 4.258-1.043c7.541-1.846 13.98-2.744 19.685-2.744m10.525 74.426c10.337 0 26.809-6.464 35.388-16.899 15.64-19.145 6.699-60.501 0.095-70.538-7.823-12.022-21.184-18.117-39.71-18.117-11.36 0-24.56 2.369-39.231 7.041l-3.268 1.041-0.597-3.378c-1.119-6.341-0.997-11.901 0.372-16.556 3.898-12.76 13.385-14.496 26.348-15.554 1.441-0.124 2.938-0.187 4.45-0.187 22.387 0 48.741 13.541 65.974 26.239 3.652 2.77 5.689 3.184 6.578 3.184 0.603 0 1.034-0.145 1.449-0.886 1.861-3.319 0.574-14.23-6.675-26.077-8.518-13.842-27.859-30.44-56.614-35.515-3.665-0.671-7.524-1.011-11.471-1.011-9.601 0-18.932 2.072-26.274 5.834-8.645 4.43-14.537 11-17.517 19.54-11.935 33.684-10.534 68.99 3.84 96.856 12.583 24.246 32.74 40.979 53.899 44.757 0.872 0.15 1.869 0.226 2.964 0.226"/><path transform="matrix(1.3333 0 0 -1.3333 1084.7 752.42)" d="m0 0c-7.537-1e-3 -18.039 7.719-21.864 20.19-2.338 7.719-0.197 17.165 6.743 29.723 3.422 6.191 7.567 12.532 11.956 19.245 3.23 4.942 6.57 10.051 9.75 15.31l0.456 0.754-0.436 0.764c-9.687 17.018-18.019 33.973-26.077 50.369l-2.194 4.462c-2.296 4.707-2.686 8.52-1.123 11.02 1.344 2.151 4.172 3.335 7.963 3.335 8.583 0 20.686-6.193 26.212-17.669 2.906-6.297 6.8-13.753 10.235-20.332l2.901-5.568 1.43 1.915c16.225 21.735 32.103 38.513 41.553 46.968 1.762 1.623 3.51 2.439 5.213 2.439 3.233 0 6.657-3.048 9.391-8.363 4.506-8.756 6.457-22.811 2.051-28.979-3.088-4.347-7.479-9.591-12.564-15.663-7.491-8.945-16.813-20.078-26.053-33.253l-0.57-0.813 0.526-0.843c8.677-13.883 19.443-26.257 30.842-39.357 3.696-4.248 7.517-8.64 11.325-13.152 6.21-7.413 8.874-14.08 7.123-17.831-1.094-2.346-3.726-2.838-5.742-2.838-4.787 0-11.059 2.631-17.658 7.407-7.355 5.296-33.18 29.047-40.826 40.242l-1.413 2.071-1.156-2.224c-2.666-5.128-5.448-9.904-8.138-14.523-1.028-1.764-2.029-3.484-2.987-5.16-4.166-7.982-6.244-13.614-6.766-18.309-0.854-7.308-4.443-11.337-10.103-11.337"/><path transform="matrix(1.3333 0 0 -1.3333 1181.6 533.19)" d="m0 0c-1.993 0-4.085-0.859-6.213-2.82-10.868-9.724-26.597-26.884-41.755-47.19-3.718 7.151-8.58 16.302-12.012 23.739-5.834 12.115-18.47 18.519-27.564 18.519-8.294 0-13.642-5.331-8.185-16.517 8.866-18.018 17.731-36.322 28.313-54.912-7.435-12.297-15.729-23.738-21.735-34.605-6.006-10.868-9.724-21.45-6.865-30.888 3.933-12.824 14.713-21.251 23.299-21.251 5.775 0 10.558 3.815 11.593 12.671 0.572 5.149 3.147 11.154 6.578 17.732 3.432 6.005 7.436 12.584 11.154 19.734 8.007-11.727 34.034-35.464 41.183-40.611 7.346-5.316 13.84-7.692 18.538-7.692 9.203 0 11.505 9.123-0.234 23.135-15.444 18.304-30.602 34.033-42.041 52.337 15.443 22.021 30.888 38.038 38.609 48.905 7.329 10.26-0.991 39.715-12.663 39.714m0 0v-3c2.613 0 5.625-2.822 8.057-7.548 4.768-9.264 5.799-22.334 2.161-27.428-3.052-4.295-7.425-9.518-12.49-15.565-7.509-8.968-16.854-20.128-26.13-33.356l-1.141-1.627 1.053-1.685c8.739-13.983 19.543-26.4 30.981-39.546 3.693-4.244 7.511-8.632 11.304-13.128 6.872-8.201 8.021-13.872 6.918-16.237-0.761-1.629-2.804-1.971-4.384-1.971-4.409 0-10.525 2.596-16.785 7.126-7.292 5.25-32.892 28.788-40.459 39.869l-2.827 4.139-2.312-4.447c-2.65-5.096-5.422-9.856-8.104-14.46-1.029-1.768-2.033-3.491-2.993-5.17l-0.028-0.05-0.027-0.051c-4.228-8.104-6.356-13.899-6.898-18.771-0.534-4.57-2.462-10.019-8.613-10.019-7.004 0-16.807 7.314-20.427 19.121-2.215 7.31-0.112 16.387 6.618 28.567 3.395 6.142 7.526 12.46 11.899 19.149 3.237 4.953 6.585 10.073 9.778 15.355l0.911 1.507-0.871 1.53c-9.665 16.978-17.987 33.913-26.035 50.29l-2.189 4.452c-2.031 4.162-2.457 7.562-1.201 9.571 1.429 2.289 4.805 2.631 6.69 2.631 8.126 0 19.6-5.896 24.84-16.777 2.932-6.351 6.834-13.824 10.277-20.417 0.62-1.188 1.223-2.342 1.798-3.448l2.206-4.241 2.859 3.831c16.158 21.646 31.956 38.341 41.384 46.778 1.459 1.344 2.866 2.026 4.18 2.026z"/><path transform="matrix(1.3333 0 0 -1.3333 1296.9 657.86)" d="m0 0c-3.668 0-6.568-0.737-8.62-2.19-10.302-6.968-21.714-23.798-15.332-35.955 0.871-1.651 2.723-3.616 6.606-3.616 8.13-1e-3 23.221 8.852 44.855 26.313l0.459 0.37 0.084 0.585c0.301 2.107 0.301 4.197 0.301 6.218v1.02l-0.95 0.375c-11.564 4.565-20.784 6.88-27.403 6.88m-5.135-74.33c-11.916-1e-3 -31.974 13.831-37.526 29.38-6.021 16.34-7.328 23.933-5.068 46.247 1.934 20.424 17.667 35.817 36.598 35.817 4.878 0 9.765-1.014 14.524-3.015 1.689-0.687 3.373-1.367 5.06-2.048 7.443-3.007 15.14-6.116 22.359-9.376l1.758-0.794 0.336 1.9c1.768 10.017 3.448 19.858 4.59 30.124 0.35 3.324-0.546 6.196-2.662 8.546-3.474 3.86-10.326 6.072-18.799 6.072-9.046 0-17.649-2.423-21.918-6.174-6.753-5.909-15.731-10.2-21.347-10.2-2.146-1e-3 -3.634 0.629-4.424 1.871-3.501 6.002 4.647 18.179 12.698 26.766 9.876 10.656 24.968 16.765 41.411 16.765 1.054 0 2.125-0.026 3.183-0.076 7.869-0.309 22.909-10.321 34.252-22.792 7.787-8.562 12.087-16.461 11.797-21.672-3.15-51.824-4.588-75.482-2.574-107.43 0.257-3.335-0.17-4.119-1.439-5.897l-0.057-0.085c-2.229-3.623-5.184-5.459-8.783-5.459-5.519 0-12.223 4.338-17.932 11.605l-0.973 1.239-1.19-1.033c-14.144-12.284-28.48-19.091-42.608-20.229-0.42-0.038-0.839-0.055-1.266-0.055"/><path transform="matrix(1.3333 0 0 -1.3333 1273.8 711.54)" d="m0 0c-2.406 0-4.243 0.851-5.279 2.813-6.006 11.44 5.148 27.457 14.871 34.034 1.919 1.359 4.62 1.914 7.753 1.914 8.076 0 19.023-3.685 26.853-6.776 0-2.002 0-4.004-0.287-6.006-13.193-10.648-33.694-25.979-43.911-25.979m39.8 139.31c-16.781-1e-3 -32.295-6.221-42.506-17.239-8.579-9.151-16.873-21.735-12.869-28.598 1.142-1.795 3.166-2.565 5.69-2.565 6.329 0 15.795 4.848 22.338 10.572 4.099 3.603 12.675 5.803 20.927 5.802 10.745-1e-3 20.94-3.732 19.97-12.952-1.145-10.296-2.86-20.306-4.576-30.029-8.866 4.004-18.304 7.721-27.455 11.439-5.088 2.139-10.185 3.133-15.105 3.133-19.417 0-36.038-15.488-38.091-37.166-2.288-22.594-0.858-30.602 5.148-46.903 5.519-15.455 25.951-30.376 38.94-30.376 0.471 0 0.934 0.02 1.385 0.06 17.732 1.43 32.604 11.154 43.472 20.592 5.804-7.387 12.906-12.178 19.111-12.178 3.885 0 7.418 1.878 10.061 6.172 1.429 2.002 2.002 3.146 1.715 6.863-2.002 31.747-0.572 55.484 2.575 107.25 0.857 15.444-32.89 45.473-47.476 46.046-1.09 0.052-2.174 0.078-3.254 0.078m-31.915-99.998c-11.052-7.491-22.689-24.812-15.817-37.901 1.062-2.013 3.301-4.413 7.932-4.413 8.601 0 23.581 8.716 45.796 26.645l0.918 0.741 0.167 1.169c0.317 2.213 0.317 4.357 0.317 6.43v2.041l-1.899 0.75c-11.74 4.635-21.145 6.985-27.954 6.985-3.97 0-7.152-0.823-9.46-2.447m31.916 99.998v-3h1e-3c1.029 0 2.075-0.025 3.134-0.076 7.38-0.29 22.268-10.294 33.189-22.302 7.407-8.144 11.673-15.838 11.41-20.564-3.154-51.896-4.594-75.582-2.571-107.66 0.226-2.94-0.096-3.392-1.166-4.889l-0.06-0.084-0.053-0.088c-1.965-3.192-4.42-4.744-7.506-4.744-5.062 0-11.325 4.124-16.752 11.031l-1.947 2.478-2.379-2.066c-13.898-12.07-27.944-18.754-41.77-19.869-0.359-0.031-0.736-0.048-1.12-0.048-11.343 0-30.894 13.765-36.125 28.413-5.921 16.07-7.207 23.552-4.976 45.583 1.86 19.639 16.952 34.449 35.104 34.449 4.677 0 9.368-0.975 13.976-2.912 1.674-0.68 3.357-1.36 5.045-2.042 7.43-3.002 15.113-6.105 22.304-9.352l3.518-1.589 0.671 3.801c1.772 10.042 3.457 19.909 4.605 30.237 0.39 3.702-0.661 7.055-3.038 9.697-5.145 5.715-14.686 6.569-19.915 6.569h-3e-3c-9.387 0-18.379-2.57-22.9-6.544-6.405-5.604-15.159-9.83-20.362-9.83-2.283 0-2.909 0.793-3.126 1.124-2.419 4.289 2.705 14.546 12.506 25 9.587 10.344 24.277 16.277 40.305 16.278z"/><path transform="matrix(1.3333 0 0 -1.3333 1544.7 585.63)" d="m0 0c-1.877 0-3.942-0.308-6.314-0.94-21.072-5.418-40.551-35.164-45.955-53.652-2.998-10.279-2.308-26.607 4.035-35.064 2.883-3.846 6.632-5.796 11.143-5.796h1e-3c1.101 0 2.255 0.121 3.433 0.36 19.354 4.082 36.285 16.564 45.301 33.391 8.344 15.573 9.301 33.28 2.697 49.857-3.278 8.083-7.833 11.844-14.341 11.844m-15.551-123.98c-25.683 0-57.024 17.53-64.488 36.072-8.024 19.793-7.182 27.751-5.334 45.189l0.286 2.713c1.239 11.295 10.274 28.939 22.479 43.895 13.851 16.974 28.821 27.277 41.071 28.267 1.514 0.109 3.044 0.163 4.532 0.163 22.862 0 41.119-12.714 55.815-38.87 12.51-22.094 17.063-40.519 5.323-74.565-8.716-24.943-23.711-37.171-51.756-42.198-2.459-0.443-5.126-0.666-7.928-0.666"/><path transform="matrix(1.3333 0 0 -1.3333 1495.2 710.89)" d="m0 0c-15.454 0-17.501 26.038-13.738 38.94 5.433 18.59 24.881 47.475 44.901 52.623 2.131 0.568 4.101 0.889 5.928 0.889 5.527 0 9.722-2.945 12.947-10.899 14.586-36.607-10.296-73.501-46.903-81.223-1.102-0.223-2.145-0.33-3.135-0.33m20.086 127.77c-1.523 0-3.076-0.055-4.653-0.168-28.314-2.288-62.347-50.05-64.921-73.501-2.002-19.162-3.432-27.456 5.148-48.619 7.961-19.775 40.826-37.012 65.88-37.012 2.848 0 5.595 0.223 8.192 0.69 30.316 5.434 44.616 19.448 52.91 43.185 11.44 33.176 8.007 52.052-5.434 75.789-13.495 24.021-31.572 39.637-57.122 39.636m-20.086-130.77c1.201 0 2.457 0.131 3.754 0.395 19.771 4.17 37.08 16.936 46.302 34.147 8.557 15.971 9.541 34.126 2.762 51.138-3.532 8.714-8.53 12.772-15.727 12.772-2.009 0-4.201-0.324-6.675-0.984-21.617-5.558-41.532-35.863-47.034-54.688-3.099-10.625-2.346-27.557 4.275-36.385 3.138-4.184 7.406-6.395 12.343-6.395m20.089 127.77c22.27 0 40.098-12.464 54.508-38.114 12.293-21.708 16.764-39.824 5.212-73.321-8.512-24.362-23.173-36.305-50.607-41.223-2.372-0.426-4.949-0.642-7.662-0.642-11.689 0-25.505 3.907-37.905 10.72-12.537 6.887-21.719 15.785-25.195 24.419-7.882 19.441-7.051 27.283-5.231 44.464l0.285 2.701c1.212 11.039 10.113 28.366 22.15 43.117 13.595 16.66 28.185 26.763 40.002 27.719 1.492 0.106 2.986 0.16 4.442 0.16z"/><path transform="matrix(1.3333 0 0 -1.3333 1264.9 495.48)" d="m0 0c0.316 5.147 1.158 10.479 3.707 15.497 4.118 8.362 13.32 13.724 22.749 11.367 5.867-1.33 10.856-4.548 15.347-8.163 3.837-3.022 7.312-6.734 11.371-8.734 1.726-0.865 3.288-1.163 4.537-1.152-0.243 0.134 0.226 0.182 0.88 0.428 9.317 3.55 18.423 8.921 27.276 13.992 2.151 1.285 4.304 2.553 6.319 4.185l1.367-0.617c-0.025-0.741-0.163-1.461-0.306-2.188-3.554-13.642-22.629-33.272-37.983-30.448-11.951 2.886-17.083 14.238-25.894 21.03-13.762 11.299-24.423-2.023-27.892-15.457-1e-3 0-1.478 0.26-1.478 0.26"/><path transform="matrix(1.3333 0 0 -1.3333 1264.9 456.29)" d="m0 0c0.316 5.147 1.158 10.479 3.707 15.497 4.118 8.362 13.32 13.724 22.749 11.367 5.867-1.33 10.856-4.548 15.347-8.163 3.837-3.022 7.312-6.734 11.371-8.734 1.726-0.865 3.288-1.163 4.537-1.152-0.244 0.134 0.226 0.182 0.88 0.428 9.317 3.55 18.423 8.921 27.276 13.992 2.151 1.285 4.304 2.553 6.319 4.185l1.367-0.617c-0.025-0.741-0.163-1.461-0.306-2.188-3.554-13.642-22.629-33.272-37.983-30.448-11.951 2.886-17.083 14.238-25.894 21.03-13.762 11.299-24.423-2.023-27.892-15.457-1e-3 0-1.478 0.26-1.478 0.26"/></g></g></svg>
